<svg xmlns="http://www.w3.org/2000/svg" version="1.1" xmlns:xlink="http://www.w3.org/1999/xlink" width="512" height="512" x="0" y="0" viewBox="0 0 512.001 512.001" style="enable-background:new 0 0 512 512" xml:space="preserve" class=""><g><path d="M256 153.607c-56.554 0-102.4 45.846-102.4 102.4s45.846 102.4 102.4 102.4 102.4-45.846 102.4-102.4c-.061-56.528-45.871-102.339-102.4-102.4zm0 187.734c-47.128 0-85.333-38.205-85.333-85.333s38.205-85.333 85.333-85.333 85.333 38.205 85.333 85.333c-.051 47.106-38.226 85.281-85.333 85.333z" fill="#fcb607" opacity="1" data-original="#000000" class=""></path><path d="M384.785 286.011a30.365 30.365 0 0 1 5.973-8.943 33.908 33.908 0 0 0 10.308-21.06 33.908 33.908 0 0 0-10.24-21.06 30.346 30.346 0 0 1-5.973-8.943 31.8 31.8 0 0 1 1.638-11.281 33.755 33.755 0 0 0 .333-23.04 32.904 32.904 0 0 0-18.185-14.293 29.802 29.802 0 0 1-9.301-5.453 31.268 31.268 0 0 1-3.217-10.692 33.684 33.684 0 0 0-9.566-21.103 32.201 32.201 0 0 0-22.383-4.907 29.494 29.494 0 0 1-10.769-.853 30.733 30.733 0 0 1-7.194-8.013 32.963 32.963 0 0 0-17.869-14.967 31.975 31.975 0 0 0-22.042 5.478 29.811 29.811 0 0 1-10.24 4.13 29.783 29.783 0 0 1-10.291-4.139 31.774 31.774 0 0 0-22.033-5.478 32.984 32.984 0 0 0-17.86 14.967 30.595 30.595 0 0 1-7.202 8.013 29.647 29.647 0 0 1-10.769.853 32.029 32.029 0 0 0-22.374 4.907 33.589 33.589 0 0 0-9.566 21.103 31.342 31.342 0 0 1-3.217 10.684 29.54 29.54 0 0 1-9.31 5.461 32.858 32.858 0 0 0-18.125 14.327 33.708 33.708 0 0 0 .324 23.04 31.801 31.801 0 0 1 1.638 11.29 30.365 30.365 0 0 1-5.973 8.943 33.908 33.908 0 0 0-10.368 21.026 33.908 33.908 0 0 0 10.24 21.06 30.346 30.346 0 0 1 5.973 8.943 31.8 31.8 0 0 1-1.638 11.281 33.755 33.755 0 0 0-.333 23.04 32.9 32.9 0 0 0 18.185 14.293 29.802 29.802 0 0 1 9.301 5.453 31.268 31.268 0 0 1 3.217 10.692 33.684 33.684 0 0 0 9.566 21.103 32.113 32.113 0 0 0 22.383 4.907 30.256 30.256 0 0 1 10.769.853 30.733 30.733 0 0 1 7.194 8.013 32.96 32.96 0 0 0 17.869 14.967 31.827 31.827 0 0 0 22.101-5.513 29.811 29.811 0 0 1 10.24-4.13 29.783 29.783 0 0 1 10.291 4.139 39.03 39.03 0 0 0 17.724 5.973 18.865 18.865 0 0 0 4.267-.495 32.984 32.984 0 0 0 17.86-14.967 30.595 30.595 0 0 1 7.202-8.013 29.892 29.892 0 0 1 10.769-.853 32.242 32.242 0 0 0 22.374-4.907 33.627 33.627 0 0 0 9.566-21.103 31.342 31.342 0 0 1 3.217-10.684 29.54 29.54 0 0 1 9.31-5.461 32.858 32.858 0 0 0 18.125-14.327 33.708 33.708 0 0 0-.324-23.04 31.845 31.845 0 0 1-1.595-11.221zm-7.142-19.832a40.441 40.441 0 0 0-9.515 16.128 41.897 41.897 0 0 0 1.707 19.157 25.678 25.678 0 0 1 1.434 11.563c-.973 2.074-5.845 4.267-9.754 6.076a39.737 39.737 0 0 0-15.701 10.487 41.133 41.133 0 0 0-6.511 17.92 26.374 26.374 0 0 1-3.61 11.093 24.476 24.476 0 0 1-11.093 1.067 39.263 39.263 0 0 0-18.773 2.56 39.954 39.954 0 0 0-13.406 13.235c-2.458 3.337-5.811 7.927-7.97 8.422-1.903.546-6.682-2.091-10.18-3.942a40.042 40.042 0 0 0-18.27-6.042 40.024 40.024 0 0 0-18.27 6.11 25.163 25.163 0 0 1-10.189 3.994c-2.159-.503-5.513-5.12-7.97-8.431a39.954 39.954 0 0 0-13.406-13.235 39.501 39.501 0 0 0-18.773-2.56 24.73 24.73 0 0 1-11.093-1.067 26.367 26.367 0 0 1-3.618-11.093 41.133 41.133 0 0 0-6.511-17.92 39.716 39.716 0 0 0-15.684-10.479c-3.917-1.783-8.789-4.011-9.771-6.084a25.77 25.77 0 0 1 1.442-11.554 41.898 41.898 0 0 0 1.707-19.157 40.441 40.441 0 0 0-9.515-16.128c-2.935-3.712-6.349-7.791-6.349-10.291s3.413-6.579 6.357-10.172a40.441 40.441 0 0 0 9.515-16.128c.924-6.432.34-12.99-1.707-19.157a25.678 25.678 0 0 1-1.434-11.563c.973-2.074 5.845-4.267 9.754-6.076a39.737 39.737 0 0 0 15.701-10.487 41.133 41.133 0 0 0 6.511-17.92 26.374 26.374 0 0 1 3.61-11.093 24.618 24.618 0 0 1 11.093-1.067 39.387 39.387 0 0 0 18.773-2.56 39.954 39.954 0 0 0 13.406-13.235c2.458-3.337 5.811-7.927 7.97-8.422 1.894-.512 6.682 2.091 10.18 3.942a40.042 40.042 0 0 0 18.27 6.042 40.024 40.024 0 0 0 18.27-6.11 25.495 25.495 0 0 1 10.189-3.951c2.159.503 5.513 5.12 7.97 8.431a39.862 39.862 0 0 0 13.406 13.235 39.338 39.338 0 0 0 18.773 2.56 24.63 24.63 0 0 1 11.093 1.067 26.367 26.367 0 0 1 3.618 11.093 41.133 41.133 0 0 0 6.511 17.92 39.716 39.716 0 0 0 15.684 10.479c3.917 1.783 8.789 4.011 9.771 6.084a25.77 25.77 0 0 1-1.442 11.554 41.898 41.898 0 0 0-1.707 19.157 40.441 40.441 0 0 0 9.515 16.128c2.978 3.593 6.357 7.68 6.357 10.172.001 2.491-3.421 6.656-6.365 10.248z" fill="#fcb607" opacity="1" data-original="#000000" class=""></path><path d="M468.216 113.023a50.893 50.893 0 0 0-58.027-61.133A252.494 252.494 0 0 0 256 .007a255.204 255.204 0 0 0-128.418 34.62c-22.898-22.981-59.962-23.454-83.44-1.067s-24.766 59.432-2.9 83.396c-52.5 80.764-55.061 184.206-6.622 267.469-23.073 22.883-23.59 60.023-1.163 83.54s59.549 24.762 83.501 2.8c96.559 62.752 223.179 53.079 309.086-23.612a33.797 33.797 0 0 0 17.69 5.12c18.851 0 34.133-15.282 34.133-34.133a33.804 33.804 0 0 0-8.038-21.734c56.811-86.098 56.174-197.937-1.613-283.383zm-15.949-10.616c0 18.851-15.282 34.133-34.133 34.133s-34.133-15.282-34.133-34.133 15.282-34.133 34.133-34.133 34.133 15.282 34.133 34.133zm-136.534 307.2c-18.034.048-32.908 14.14-33.929 32.145a180.641 180.641 0 0 1-25.805 1.988c-91.354.16-169.471-65.665-184.805-155.724a33.928 33.928 0 0 0 22.678-31.982 33.928 33.928 0 0 0-22.627-32.018C86.846 134.129 164.769 68.443 256 68.274a185.612 185.612 0 0 1 111.061 36.599c1.216 25.302 20.752 45.911 45.952 48.478a186.614 186.614 0 0 1 30.72 102.656c-.223 70.061-39.278 134.22-101.41 166.596a33.92 33.92 0 0 0-26.59-12.996zm17.067 34.134c0 9.426-7.641 17.067-17.067 17.067s-17.067-7.641-17.067-17.067 7.641-17.067 17.067-17.067 17.067 7.641 17.067 17.067zm-273.067-204.8c9.426 0 17.067 7.641 17.067 17.067s-7.641 17.067-17.067 17.067-17.067-7.641-17.067-17.067c.001-9.426 7.642-17.067 17.067-17.067zM256 17.074a235.585 235.585 0 0 1 134.98 42.001 51.435 51.435 0 0 0-21.257 26.795c-67.965-45.737-156.73-46.251-225.22-1.306a58.311 58.311 0 0 0-6.639-36.164A238.077 238.077 0 0 1 256 17.074zM85.333 34.141c23.564 0 42.667 19.103 42.667 42.667s-19.103 42.667-42.667 42.667-42.667-19.103-42.667-42.667c.029-23.553 19.115-42.639 42.667-42.667zM17.067 256.007A236.94 236.94 0 0 1 54.503 127.87a59.293 59.293 0 0 0 30.831 8.67c1.63 0 3.226-.119 4.821-.247a202.75 202.75 0 0 0-35.942 86.135c-16.488 2.637-28.622 16.855-28.634 33.553-.013 16.697 12.099 30.934 28.583 33.596a202.312 202.312 0 0 0 30.174 77.892 58.405 58.405 0 0 0-35.951 6.673 238.189 238.189 0 0 1-31.318-118.135zM76.8 469.341c-23.564 0-42.667-19.103-42.667-42.667s19.103-42.667 42.667-42.667 42.667 19.103 42.667 42.667c-.028 23.552-19.114 42.638-42.667 42.667zm51.064-11.845a59.182 59.182 0 0 0 8.67-30.822c0-1.493-.119-2.953-.222-4.42a202.772 202.772 0 0 0 119.689 38.554 197.72 197.72 0 0 0 29.099-2.304c7.135 15.565 24.75 23.374 41.075 18.21s26.244-21.682 23.13-38.519c68.261-35.153 111.255-105.406 111.497-182.187a203.545 203.545 0 0 0-28.689-104.388 51.342 51.342 0 0 0 27.895-19.84c47.974 78.511 46.416 177.637-4.002 254.601a33.903 33.903 0 0 0-41.813 48.529c-79.662 70.682-196.559 79.904-286.319 22.588h-.01zm315.869-22.289c-9.426 0-17.067-7.641-17.067-17.067s7.641-17.067 17.067-17.067 17.067 7.641 17.067 17.067-7.641 17.067-17.067 17.067z" fill="#fcb607" opacity="1" data-original="#000000" class=""></path></g></svg>